<svg width="61" height="53" viewBox="0 0 61 53" fill="none" xmlns="http://www.w3.org/2000/svg">
<rect x="0.5" y="0.5" width="60" height="52" rx="9.5" fill="white" stroke="#A1B5E8"/>
<path d="M44.3869 39.6586L51.7826 31.5815L48.5575 31.0132L44.3358 36.1339L44.3869 39.6586Z" fill="#D0DCF7"/>
<path d="M22.9788 33.5613L23.243 34.7155L33.1224 37.4034L42.8643 39.3123L44.1694 39.1947V35.8075L43.7011 35.4924L37.7414 34.9219L37.4373 36.3314L36.5695 36.7331L29.8596 35.3214L29.2736 35.3281L28.9274 32.0209L25.6135 31.4216L25.2073 33.386L24.204 34.1894L22.9788 33.5613Z" fill="#D0DCF7"/>
<path d="M34.5119 19.4135L29.8685 22.0948C29.8685 22.0948 31.1071 23.1313 31.0782 23.6285C31.7419 23.846 31.9439 23.8993 32.643 24.0391L37.9457 20.0461" fill="black"/>
<path d="M25.2607 29.9743L29.5778 26.5095L30.1904 26.0189C30.5256 25.7504 30.0506 25.282 29.7199 25.5484L25.4027 29.0132L24.7901 29.5037C24.455 29.7723 24.93 30.2406 25.2607 29.9743Z" fill="black"/>
<path d="M28.6676 31.9322C28.7253 32.7512 28.7697 33.5703 28.823 34.3893C28.8474 34.7666 28.874 35.1462 28.9073 35.5235C28.9273 35.7522 28.9317 36.0007 28.9983 36.2227C29.1204 36.6333 29.7641 36.458 29.6398 36.0451C29.6309 36.0185 29.6265 35.9897 29.622 35.9608C29.6176 35.9408 29.6154 35.9208 29.6132 35.9009C29.6021 35.8298 29.6198 35.963 29.6132 35.8898C29.5976 35.7544 29.5843 35.619 29.571 35.4836C29.5377 35.1018 29.511 34.7178 29.4866 34.336C29.4334 33.5348 29.389 32.7335 29.3335 31.9322C29.3046 31.506 28.6387 31.5038 28.6676 31.9322Z" fill="black"/>
<path d="M29.1626 32.1496L31.491 30.345C31.633 30.2341 31.6064 29.9899 31.491 29.8745C31.3511 29.7347 31.1625 29.7635 31.0204 29.8745L28.692 31.679C28.55 31.79 28.5766 32.0342 28.692 32.1496C28.8319 32.2894 29.0205 32.2606 29.1626 32.1496Z" fill="black"/>
<path d="M34.2345 28.2475L37.3353 26.2676L42.2828 23.1091L43.4236 22.3811C43.7832 22.1502 43.4503 21.5754 43.0885 21.8062L39.9877 23.7861L35.0402 26.9446L33.8993 27.6726C33.5397 27.9035 33.8727 28.4783 34.2345 28.2475Z" fill="black"/>
<path d="M43.0199 21.8596C40.7027 23.8994 38.5008 26.0702 36.3123 28.2477C35.7241 28.8336 35.1359 29.4196 34.5499 30.0078C34.2458 30.3119 34.7186 30.7824 35.0205 30.4784C37.2001 28.292 39.3886 26.1102 41.6482 24.0038C42.2564 23.4378 42.869 22.8784 43.4927 22.3302C43.8145 22.0461 43.3418 21.5777 43.0221 21.8596H43.0199Z" fill="black"/>
<path d="M32.1814 32.2429L29.6333 34.9552C29.469 35.1306 29.5267 35.4524 29.7798 35.5123C31.7619 35.9718 33.7395 36.4912 35.7372 36.8818C36.0191 36.9373 36.301 36.9906 36.5851 37.0394C36.776 37.0727 36.9091 37.0416 37.0556 36.9129C37.211 36.7775 37.3619 36.6355 37.5151 36.4956C37.5883 36.4312 37.6594 36.3647 37.7326 36.3003C37.7637 36.2714 37.9346 36.1294 37.7925 36.2381L37.3886 35.7143C37.3642 35.7387 37.3375 35.7631 37.3109 35.7853C36.9957 36.0761 37.4663 36.5467 37.7814 36.2559C37.8081 36.2315 37.8347 36.2093 37.8591 36.1849C38.1122 35.9252 37.7659 35.4235 37.4552 35.661C37.1267 35.9141 36.8292 36.2159 36.5207 36.4956L36.8448 36.4091C34.5297 35.9984 32.2457 35.3969 29.9551 34.8664L30.1016 35.4235L32.6497 32.7112C32.9427 32.3982 32.4721 31.9277 32.1792 32.2406L32.1814 32.2429Z" fill="black"/>
<path d="M49.1236 23.1537C46.9751 25.2001 44.7643 27.18 42.5913 29.2043C41.5637 30.1632 40.5471 31.1332 39.5527 32.1275C39 32.6802 38.4518 33.2418 37.9124 33.8078C37.7948 33.9321 37.6749 34.0564 37.5573 34.1829C37.4241 34.3249 37.2665 34.4448 37.2443 34.6468C37.2354 34.7178 37.2443 34.7977 37.2465 34.8688C37.2599 36.0407 37.2776 37.2127 37.342 38.3824C37.3486 38.5222 37.4396 38.6732 37.5861 38.7042C39.7503 39.1526 41.9343 39.5987 44.1384 39.7896C44.2671 39.8007 44.4403 39.6786 44.4603 39.5455C44.5535 38.8574 44.5735 38.156 44.609 37.4613C44.6378 36.8753 44.6778 36.2893 44.68 35.7033C44.6822 35.2749 44.0163 35.2749 44.0141 35.7033C44.0119 36.2671 43.9742 36.8353 43.9453 37.3991C43.9253 37.792 43.9054 38.1848 43.8809 38.5777C43.8698 38.7397 43.8587 38.904 43.8454 39.066C43.8388 39.1348 43.8343 39.2036 43.8277 39.2724C43.8254 39.3013 43.8077 39.4522 43.8188 39.3701L44.1406 39.126C41.9965 38.9417 39.8701 38.5022 37.7659 38.065L38.0101 38.3868C37.9413 37.1438 37.9235 35.8964 37.9124 34.6512L37.8148 34.8865C40.6536 31.8612 43.7189 29.0822 46.7664 26.2744C47.7164 25.3999 48.6597 24.5187 49.5942 23.6287C49.9049 23.3335 49.4344 22.8629 49.1236 23.1581V23.1537Z" fill="black"/>
<path d="M53.6627 24.9891L48.9149 30.1009C48.9149 30.1009 48.9238 31.0975 48.9571 31.6635C49.7362 31.8255 50.8526 32.0452 51.6628 32.1118L57.1829 25.6306" fill="black"/>
<path d="M44.5843 35.9341C45.501 34.7999 46.5131 33.7345 47.4986 32.658C48.8925 31.1353 50.2953 29.6215 51.6892 28.1011C52.3684 27.3598 53.0476 26.6162 53.718 25.8638C54.0021 25.5441 53.5337 25.0714 53.2474 25.3932C50.6815 28.2676 48.0202 31.0576 45.4477 33.9276C44.9949 34.4314 44.5399 34.9353 44.116 35.4613C43.8496 35.792 44.3179 36.2648 44.5865 35.9319L44.5843 35.9341Z" fill="black"/>
<path d="M29.5353 35.1906L29.4377 36.5312C29.4266 36.6755 29.5486 36.8153 29.6818 36.853C31.5929 37.3813 33.5173 37.8785 35.4572 38.2869C36.0743 38.4156 36.6935 38.5355 37.3195 38.611C37.7434 38.662 37.7412 37.9961 37.3195 37.9451C36.1586 37.8052 35.0066 37.5189 33.8702 37.2459C32.7338 36.9729 31.6528 36.6954 30.5519 36.4002C30.3211 36.3381 30.0902 36.2759 29.8594 36.2116L30.1035 36.5334L30.2012 35.1928C30.2323 34.7644 29.5664 34.7666 29.5353 35.1928V35.1906Z" fill="black"/>
<path d="M44.4379 35.379L38.6558 34.5178L37.8301 34.3957C37.4106 34.3336 37.2308 34.975 37.6525 35.0372L43.4346 35.8984L44.2603 36.0205C44.6798 36.0826 44.8596 35.4411 44.4379 35.379Z" fill="black"/>
<path d="M28.9029 31.6125C27.7553 31.3594 26.5945 31.1619 25.4469 30.9088C25.0297 30.8178 24.8499 31.4593 25.2694 31.5503C26.4169 31.8033 27.5778 32.0009 28.7253 32.2539C29.1426 32.3449 29.3224 31.7035 28.9029 31.6125Z" fill="black"/>
<path d="M29.589 36.116L23.0766 34.3936C22.6616 34.2848 22.484 34.9263 22.8991 35.035L29.4114 36.7574C29.8265 36.8662 30.004 36.2247 29.589 36.116Z" fill="black"/>
<path d="M9.24185 18.2258C9.03321 18.9139 9.05762 19.6286 9.09092 20.3389C9.12865 21.1135 9.16638 21.8882 9.20412 22.6628C9.27071 24.019 9.26183 25.4484 9.78122 26.7269C10.3006 28.0054 11.2506 28.84 12.3404 29.5347C13.5568 30.3094 14.9063 30.7666 16.3113 31.0463C17.6675 31.3148 19.0614 31.4813 20.3488 32.0096C20.9281 32.2471 21.4874 32.5623 21.9558 32.9818C22.4241 33.4013 22.7859 33.9695 23.3652 34.2603C23.9445 34.551 24.5638 34.5 25.0321 34.0583C25.5005 33.6166 25.6869 32.984 25.7557 32.3869C25.9044 31.1129 25.3229 29.8654 24.2797 29.1308C23.7381 28.749 23.1255 28.598 22.4862 28.476C21.8825 28.3605 21.2344 28.2363 20.9525 27.6236C20.7882 27.2641 20.7172 26.8446 20.644 26.4606C20.5663 26.0455 20.5263 25.6193 20.5574 25.1976C20.6084 24.5229 20.8881 23.8192 21.4541 23.4175C21.8004 23.1711 21.4674 22.594 21.119 22.8426C20.0624 23.5951 19.7739 24.9068 19.9248 26.1365C20.0025 26.7691 20.1157 27.4771 20.4198 28.0454C20.6773 28.5292 21.1434 28.8156 21.6561 28.9709C22.1688 29.1263 22.757 29.1596 23.2831 29.3527C23.8091 29.5458 24.2752 29.9054 24.5949 30.356C24.95 30.8554 25.1276 31.4525 25.1142 32.0629C25.1031 32.6044 24.9456 33.3258 24.4728 33.661C23.9023 34.0672 23.292 33.4235 22.9324 33.0328C22.524 32.5867 22.0889 32.1938 21.5695 31.8786C20.4908 31.2261 19.2456 30.9198 18.0182 30.6889C16.6531 30.4314 15.2681 30.2295 13.9851 29.6657C12.8265 29.1552 11.6346 28.4094 10.8821 27.3662C10.0121 26.1587 9.96322 24.6383 9.89441 23.2066L9.77456 20.7207C9.73682 19.9482 9.6547 19.1581 9.88332 18.4056C10.0076 17.995 9.36615 17.8196 9.24185 18.2281V18.2258Z" fill="black"/>
<path d="M21.2875 23.4598C22.6881 23.3244 24.0332 23.7927 25.3028 24.3343C25.9886 24.6273 26.6656 24.9425 27.3515 25.2377C27.7 25.3886 28.0507 25.5351 28.4058 25.6705C28.7609 25.8059 29.1227 25.9724 29.489 26.0368C29.702 26.0745 29.7487 26.0101 29.8041 26.2387C29.853 26.4363 29.8952 26.6383 29.944 26.8358C30.0505 27.2664 30.1682 27.6926 30.2947 28.1165C30.53 28.9001 30.803 29.6725 31.1115 30.4294C31.42 31.1862 31.753 31.9232 32.1259 32.6445C32.4455 33.266 32.8206 33.8853 33.4265 34.2648C34.5652 34.9751 36.2166 34.7443 37.0778 33.7077C37.3508 33.3814 36.8825 32.9064 36.6072 33.2372C35.8925 34.0961 34.4875 34.287 33.5975 33.5745C33.0359 33.1262 32.7318 32.3893 32.4255 31.7589C32.0659 31.0176 31.7419 30.2607 31.4555 29.4882C31.1692 28.7158 30.9228 27.9412 30.7098 27.151C30.6121 26.7892 30.5322 26.423 30.4412 26.059C30.3568 25.7127 30.1881 25.4352 29.8108 25.3909C29.085 25.3065 28.3525 24.9469 27.6822 24.6606C27.0119 24.3743 26.3194 24.0502 25.6335 23.7572C24.2596 23.1712 22.7991 22.6452 21.2809 22.7917C20.8591 22.8339 20.8547 23.4997 21.2809 23.4576L21.2875 23.4598Z" fill="black"/>
<path d="M36.7831 33.5614C37.3092 33.0065 37.6643 32.4894 37.5134 31.9345C37.3624 31.3796 36.7964 30.9667 36.2193 30.9889C35.9175 31.0022 35.5956 31.1154 35.327 30.9756C35.1672 30.8912 35.0629 30.7314 34.9697 30.5761C33.7223 28.4519 33.5425 25.8927 33.2695 23.4445C33.2384 23.1648 33.2029 22.8762 33.0719 22.6277C32.921 22.3391 32.6591 22.126 32.3994 21.9285C31.3362 21.1228 30.1909 20.4236 28.9856 19.8487C28.4796 19.6068 27.9313 19.3604 27.6405 18.881C27.514 18.6723 27.4474 18.4348 27.3453 18.2129C27.0768 17.6291 26.5552 17.1652 25.9426 16.9699" fill="white"/>
<path d="M37.018 33.7964C37.5085 33.2726 38.039 32.6111 37.8326 31.8454C37.6572 31.1973 37.0379 30.7112 36.3743 30.6601C36.0746 30.6379 35.613 30.8443 35.3821 30.5957C35.1313 30.3249 34.9693 29.8921 34.8228 29.5592C34.5009 28.8312 34.2856 28.0565 34.1236 27.2774C33.9616 26.4983 33.8528 25.686 33.7596 24.8825C33.7152 24.4985 33.6752 24.1145 33.6331 23.7305C33.5909 23.3465 33.5687 22.9137 33.4 22.543C33.0848 21.8549 32.2747 21.4044 31.6732 20.9982C30.9806 20.532 30.2593 20.1103 29.5157 19.7352C29.145 19.5488 28.7522 19.3912 28.4037 19.1648C28.0263 18.9206 27.8754 18.6099 27.7067 18.2059C27.396 17.4579 26.7989 16.9074 26.0331 16.6477C25.627 16.5101 25.4516 17.1516 25.8556 17.2892C26.5681 17.5311 26.9232 18.0616 27.2007 18.7231C27.4781 19.3845 27.982 19.7286 28.5901 20.0238C29.2826 20.3611 29.9641 20.7096 30.6211 21.1114C31.2781 21.5131 31.9595 21.9237 32.51 22.4431C33.0604 22.9625 32.9761 23.8148 33.0515 24.494C33.1337 25.2443 33.2224 25.9967 33.349 26.7425C33.5865 28.1453 33.9549 29.679 34.7673 30.8732C34.9848 31.1928 35.28 31.3748 35.6707 31.3726C36.0613 31.3704 36.3743 31.2461 36.725 31.4414C37.0046 31.5968 37.2399 31.9075 37.2133 32.2427C37.18 32.6644 36.8204 33.0284 36.5474 33.3192C36.2544 33.6322 36.725 34.1027 37.018 33.7898V33.7964Z" fill="black"/>
<path d="M25.9022 16.5192C23.3474 15.5226 20.9813 14.1153 18.5309 12.8946C17.3034 12.282 16.0494 11.7137 14.7509 11.2676C13.3969 10.8037 12.003 10.5085 10.5847 10.3265C8.90001 10.1134 7.20201 10.0557 5.50623 10.0002C5.07785 9.98688 5.07785 10.6528 5.50623 10.6661C8.44055 10.7637 11.3948 10.8792 14.2093 11.7892C16.7996 12.626 19.1768 13.9799 21.5806 15.2296C22.9324 15.9332 24.3019 16.6057 25.7246 17.1606C26.1241 17.316 26.2973 16.6723 25.9022 16.5192Z" fill="black"/>
<path d="M9.0212 18.8963C6.78606 18.8785 4.55314 18.9163 2.32021 19.0117C1.89405 19.0295 1.89183 19.6953 2.32021 19.6776C4.55314 19.5844 6.78606 19.5466 9.0212 19.5622C9.44958 19.5644 9.44958 18.9007 9.0212 18.8963Z" fill="black"/>
<path d="M27.2871 24.8048C26.8943 25.5927 26.4259 26.343 26.0197 27.1265C25.8289 27.4927 25.6602 27.8634 25.5203 28.2496C25.3383 28.7535 25.0964 29.335 24.4993 29.4193C24.3195 29.4438 24.2241 29.6702 24.2663 29.83C24.3173 30.0209 24.4993 30.0874 24.6769 30.063C25.8533 29.8966 26.0641 28.5115 26.5081 27.6303C26.952 26.7492 27.4403 25.9878 27.8598 25.1422C28.0507 24.7604 27.4758 24.423 27.2849 24.807L27.2871 24.8048Z" fill="black"/>
<path d="M21.5226 24.6141C21.9043 24.9138 22.2883 25.2201 22.7367 25.4176C22.8632 25.4731 22.9919 25.4798 23.1074 25.391C23.2028 25.3178 23.276 25.1624 23.2272 25.0403C22.9942 24.4743 22.8033 23.8928 22.659 23.2979C22.6168 23.1292 22.4171 23.0116 22.2484 23.0649C22.073 23.1226 21.9709 23.2935 22.0153 23.4755C22.1596 24.0703 22.3505 24.6519 22.5835 25.2179L23.0718 24.8428C22.8676 24.7518 22.6745 24.6386 22.4903 24.512C22.3993 24.4499 22.3105 24.3855 22.224 24.3189C22.204 24.3034 22.1818 24.2879 22.1618 24.2723C22.1463 24.259 22.1063 24.2279 22.1418 24.2568C22.093 24.2191 22.0442 24.1791 21.9931 24.1414C21.8555 24.0348 21.6535 23.9971 21.5226 24.1414C21.4116 24.2612 21.3761 24.4965 21.5226 24.6119V24.6141Z" fill="black"/>
<path d="M30.3037 25.9436C30.3525 25.8615 30.4124 25.7838 30.4524 25.6973C30.4702 25.6573 30.4901 25.6151 30.5034 25.5707C30.5168 25.5264 30.5212 25.4753 30.5256 25.4309C30.5323 25.3754 30.5279 25.3199 30.5256 25.2667C30.5256 25.22 30.5168 25.1779 30.4968 25.1379C30.4835 25.0957 30.4613 25.0602 30.428 25.0314C30.3703 24.9737 30.2748 24.9293 30.1927 24.9337C30.1106 24.9382 30.0174 24.9648 29.9574 25.0314C29.9019 25.0935 29.8509 25.1801 29.8598 25.2667C29.8642 25.3244 29.8686 25.3799 29.8598 25.4376L29.8709 25.3488C29.8664 25.3799 29.8575 25.4087 29.8464 25.4376L29.8797 25.3577C29.842 25.4464 29.7776 25.5241 29.7288 25.6085C29.6844 25.6839 29.6711 25.7816 29.6955 25.866C29.7177 25.9436 29.7754 26.028 29.8487 26.0657C29.9263 26.1057 30.0196 26.1279 30.1061 26.099C30.1927 26.0702 30.2615 26.0235 30.3059 25.9459L30.3037 25.9436Z" fill="black"/>
<path d="M36.758 36.733V37.996" stroke="black" stroke-miterlimit="10"/>
<path d="M10.8442 34.1651C14.7663 35.3792 18.7083 36.529 22.6658 37.6143C26.6234 38.6997 30.6031 39.7185 34.5962 40.673C36.8469 41.2101 39.1042 41.7273 41.366 42.2245C41.7833 42.3155 41.9631 41.674 41.5436 41.583C37.5327 40.704 33.5375 39.7585 29.5599 38.7463C25.5802 37.7342 21.6182 36.6577 17.6762 35.5168C15.4521 34.8731 13.2347 34.2072 11.024 33.5236C10.6134 33.3971 10.438 34.0386 10.8464 34.1651H10.8442Z" fill="black"/>
</svg>
