<svg width="13" height="14" viewBox="0 0 13 14" fill="none" xmlns="http://www.w3.org/2000/svg">
<path d="M5.85 3.78124H7.15V5.08124H5.85V3.78124ZM5.85 6.38124H7.15V10.2812H5.85V6.38124ZM6.5 0.531242C2.912 0.531242 0 3.44324 0 7.03124C0 10.6192 2.912 13.5312 6.5 13.5312C10.088 13.5312 13 10.6192 13 7.03124C13 3.44324 10.088 0.531242 6.5 0.531242ZM6.5 12.2312C3.6335 12.2312 1.3 9.89774 1.3 7.03124C1.3 4.16474 3.6335 1.83124 6.5 1.83124C9.3665 1.83124 11.7 4.16474 11.7 7.03124C11.7 9.89774 9.3665 12.2312 6.5 12.2312Z" fill="#426BD1"/>
</svg>
