<svg width="255" height="252" viewBox="0 0 255 252" fill="none" xmlns="http://www.w3.org/2000/svg">
<path d="M228.794 156.174L144.165 240.822C130.541 254.446 108.456 254.446 94.8406 240.822L10.2115 156.174C-3.40385 142.55 -3.40385 120.474 10.2115 106.85L37.1754 80.4199C42.9014 74.8043 50.5974 71.6651 58.6157 71.6651H94.5828L34.7358 131.512L59.5823 156.359L59.6559 156.285L94.6748 191.304L94.6012 191.377L119.429 216.224L144.349 191.304V191.276L204.123 131.503L179.295 106.675L119.494 46.8739L119.42 46.8003L94.8314 22.2115C108.456 8.59615 130.531 8.59615 144.156 22.2115L228.785 106.841C242.4 120.456 242.41 142.541 228.785 156.156L228.794 156.174Z" fill="#D2DCF4"/>
<path d="M117.559 88.9814L96.7448 109.796L118.443 131.485L96.8 153.118L117.67 173.988L160.118 131.54L117.559 88.9814Z" fill="#D2DCF4"/>
<path d="M111.902 227.762L111.901 227.761L27.2726 143.114C27.2725 143.114 27.2724 143.114 27.2723 143.114C14.2442 130.077 14.2426 108.955 27.2673 95.9153C27.269 95.9136 27.2708 95.9118 27.2726 95.91L54.2254 69.4911L54.2257 69.4908C59.6709 64.1507 66.9896 61.1651 74.6157 61.1651H106.961L49.6752 118.451L48.6145 119.512L49.6752 120.573L74.5216 145.419L75.5821 146.48L75.6558 146.406L108.554 179.304L108.481 179.377L109.54 180.438L134.368 205.284L135.429 206.346L136.49 205.285L161.41 180.364L161.849 179.925V179.897L221.183 120.564L222.244 119.503L221.183 118.442L196.355 93.6142L136.555 33.8136L136.554 33.8132L136.481 33.7399L136.481 33.7396L112.976 10.2353C126.077 -1.74782 146.413 -1.40207 159.096 11.2726L243.724 95.9012C256.754 108.931 256.763 130.066 243.725 143.095L242.959 143.86L242.969 143.879L159.105 227.761C159.105 227.761 159.105 227.761 159.105 227.761C146.066 240.8 124.931 240.8 111.902 227.762Z" fill="white" stroke="#2B50B0" stroke-width="3"/>
<path d="M135.503 118.424L114.866 97.7956L133.559 79.1028L173.996 119.54L133.67 159.867L114.922 141.119L135.503 120.546L136.565 119.485L135.503 118.424Z" fill="white" stroke="#2B50B0" stroke-width="3"/>
</svg>
