<svg width="18" height="12" viewBox="0 0 18 12" fill="none" xmlns="http://www.w3.org/2000/svg">
<path fill-rule="evenodd" clip-rule="evenodd" d="M0.269027 6.04328C0.269027 5.87692 0.335114 5.71737 0.452749 5.59974C0.570384 5.4821 0.729931 5.41602 0.896292 5.41602L15.691 5.41602L11.7429 1.46927C11.6252 1.35148 11.559 1.19173 11.559 1.02516C11.559 0.858593 11.6252 0.698844 11.7429 0.581061C11.8607 0.463277 12.0205 0.397108 12.1871 0.397108C12.3536 0.397108 12.5134 0.463277 12.6312 0.581061L17.6493 5.59918C17.7077 5.65744 17.754 5.72666 17.7857 5.80287C17.8173 5.87908 17.8336 5.96077 17.8336 6.04328C17.8336 6.12579 17.8173 6.20748 17.7857 6.28369C17.754 6.3599 17.7077 6.42912 17.6493 6.48738L12.6312 11.5055C12.5134 11.6233 12.3536 11.6895 12.1871 11.6895C12.0205 11.6895 11.8607 11.6233 11.7429 11.5055C11.6252 11.3877 11.559 11.228 11.559 11.0614C11.559 10.8948 11.6252 10.7351 11.7429 10.6173L15.691 6.67054L0.896292 6.67055C0.729931 6.67055 0.570384 6.60446 0.452749 6.48682C0.335114 6.36919 0.269027 6.20964 0.269027 6.04328Z" fill="#0B1038"/>
</svg>
