<svg width="15" height="12" viewBox="0 0 15 12" fill="none" xmlns="http://www.w3.org/2000/svg">
<path fill-rule="evenodd" clip-rule="evenodd" d="M0.031677 6.35383C0.031677 6.18747 0.0860245 6.02792 0.182764 5.91028C0.279503 5.79265 0.41071 5.72656 0.54752 5.72656L12.7142 5.72656L9.46747 1.77981C9.37061 1.66203 9.31619 1.50228 9.31619 1.33571C9.31619 1.16914 9.37061 1.00939 9.46747 0.891608C9.56433 0.773824 9.6957 0.707654 9.83268 0.707654C9.96967 0.707654 10.101 0.773824 10.1979 0.891608L14.3246 5.90972C14.3727 5.96799 14.4108 6.03721 14.4368 6.11342C14.4628 6.18962 14.4762 6.27132 14.4762 6.35383C14.4762 6.43633 14.4628 6.51803 14.4368 6.59424C14.4108 6.67044 14.3727 6.73966 14.3246 6.79793L10.1979 11.816C10.101 11.9338 9.96967 12 9.83268 12C9.6957 12 9.56433 11.9338 9.46747 11.816C9.37061 11.6983 9.31619 11.5385 9.31619 11.3719C9.31619 11.2054 9.37061 11.0456 9.46747 10.9278L12.7142 6.98109L0.54752 6.98109C0.41071 6.98109 0.279503 6.915 0.182764 6.79737C0.0860246 6.67973 0.031677 6.52019 0.031677 6.35383Z" fill="white"/>
</svg>
